<svg xmlns="http://www.w3.org/2000/svg" width="100" height="24" viewBox="0 0 100 24" fill="none">
    <path
        d="M24.7358 0.608267H22.5701L21.5039 2.45465L20.4387 4.30567L19.3725 6.15206L18.3063 8.00308L17.2401 9.83652L18.3026 11.6875L19.3725 13.5386L25.7853 2.43244C25.8934 2.24807 25.9508 2.03838 25.9517 1.82467C25.9525 1.61096 25.8969 1.40083 25.7903 1.21559C25.6837 1.03034 25.53 0.876577 25.3448 0.769915C25.1596 0.663253 24.9495 0.607493 24.7358 0.608267Z"
        fill="#FF6626" />
    <path d="M20.4383 0.608259L16.1736 7.99475L14.0412 4.30104L16.1736 0.608259H20.4383Z" fill="#FF6626" />
    <path
        d="M15.1077 9.8412L12.9791 6.14379L11.9129 4.29738L9.78142 0.599976H5.51297L9.77401 7.99018L10.843 9.83657L15.104 17.2323L16.1739 19.0731L17.2401 17.2268L18.3063 15.3757L15.1077 9.8412Z"
        fill="#FF6626" />
    <path
        d="M1.21488 0.608264H3.38058L4.44676 2.45465L5.51295 4.30567L6.57914 6.15206L7.64532 8.00308L8.71151 9.83652L12.9726 17.2313L14.0452 19.0731L15.1114 20.9195L14.0249 22.7936C13.9186 22.978 13.7656 23.1311 13.5814 23.2375C13.3971 23.344 13.1881 23.4 12.9753 23.4C12.7626 23.4 12.5535 23.344 12.3693 23.2375C12.185 23.1311 12.0321 22.978 11.9258 22.7936L0.16258 2.42595C0.0560005 2.24154 -7.77984e-05 2.03231 8.10059e-08 1.81931C7.79604e-05 1.60632 0.0563119 1.39709 0.163026 1.21276C0.269741 1.02843 0.423164 0.8755 0.607835 0.769369C0.792505 0.663239 1.00189 0.607668 1.21488 0.608264Z"
        fill="#FF6626" />
    <path d="M49.3054 2.64011L42.0957 22.3013H37.3077L30.0981 2.64011H34.3222L39.7294 18.2712L45.109 2.64011H49.3054Z"
        fill="white" />
    <path
        d="M48.7563 10.2439C49.3851 9.02383 50.2394 8.08523 51.3192 7.42813C52.4096 6.76779 53.6633 6.42631 54.9379 6.44246C56.102 6.44246 57.1208 6.67719 57.9945 7.14663C58.8175 7.57377 59.5343 8.1799 60.0923 8.92047V6.69536H64.0635V22.2987H60.0923V20.0173C59.5853 20.7495 58.886 21.3558 57.9945 21.8362C57.1029 22.3166 56.0748 22.556 54.9102 22.5542C53.6409 22.5671 52.3945 22.2154 51.3192 21.5408C50.2389 20.8641 49.3846 19.9114 48.7563 18.6826C48.1281 17.4539 47.8137 16.0409 47.8131 14.4438C47.8131 12.8645 48.1275 11.4646 48.7563 10.2439ZM59.5293 12.0325C59.1797 11.3749 58.6528 10.8285 58.0083 10.4552C57.3838 10.0931 56.6741 9.90358 55.9521 9.90612C55.2273 9.89901 54.5145 10.0909 53.8912 10.461C53.268 10.831 52.7582 11.365 52.4175 12.0048C52.0329 12.6901 51.8406 13.502 51.8406 14.4403C51.8406 15.3786 52.0329 16.2003 52.4175 16.9053C52.768 17.5731 53.2938 18.1327 53.9384 18.5241C54.545 18.8938 55.2418 19.0889 55.9521 19.088C56.6741 19.0905 57.3838 18.901 58.0083 18.5389C58.6528 18.1656 59.1797 17.6192 59.5293 16.9616C59.904 16.2768 60.0917 15.4551 60.0923 14.4966C60.0928 13.5381 59.9052 12.7167 59.5293 12.0325Z"
        fill="white" />
    <path
        d="M81.5245 6.69542V22.2988H77.5507V20.3266C77.0311 21.0135 76.349 21.5606 75.5655 21.9186C74.7324 22.3068 73.823 22.5038 72.9039 22.4954C71.6833 22.4954 70.6038 22.2373 69.6654 21.7211C68.7184 21.1968 67.9487 20.4027 67.4542 19.4397C66.919 18.4356 66.6513 17.2386 66.6513 15.8487V6.69542H70.5948V15.2857C70.5948 16.5249 70.9046 17.4776 71.5242 18.144C72.1437 18.8103 72.9885 19.1437 74.0585 19.1443C75.1475 19.1443 76.0018 18.8109 76.6214 18.144C77.2409 17.477 77.5507 16.5243 77.5507 15.2857V6.69542H81.5245Z"
        fill="white" />
    <path d="M88.509 1.45696V22.2987H84.5664V1.45696H88.509Z" fill="white" />
    <path
        d="M96.5078 9.93468V17.4821C96.5078 18.0076 96.6345 18.3878 96.888 18.6228C97.1418 18.8575 97.5679 18.9754 98.1699 18.9754H100V22.2987H97.522C94.1989 22.2987 92.5371 20.684 92.5366 17.4544V9.93468H90.6778V6.69533H92.5348V2.8376H96.506V6.69533H99.9983V9.93468H96.5078Z"
        fill="white" />
</svg>